<svg width="95" height="35" viewBox="0 0 95 35" fill="none" xmlns="http://www.w3.org/2000/svg">
<g clip-path="url(#clip0_15_15)">
<path d="M48.6556 11.5929L53.1393 11.3031C53.2416 12.0361 53.4291 12.5817 53.736 12.9738C54.2304 13.5875 54.9123 13.8944 55.8159 13.8944C56.4808 13.8944 57.0093 13.741 57.3673 13.4171C57.7082 13.1613 57.9128 12.7522 57.9128 12.326C57.9128 11.9168 57.7253 11.5247 57.4014 11.269C57.0604 10.9621 56.2591 10.6552 54.9976 10.3825C52.9347 9.92213 51.4515 9.30839 50.5821 8.52417C49.7126 7.7911 49.2182 6.71706 49.2523 5.57483C49.2523 4.79061 49.491 4.00639 49.9342 3.35856C50.4457 2.62549 51.1447 2.04585 51.98 1.72193C52.8836 1.32982 54.1452 1.12524 55.7306 1.12524C57.6741 1.12524 59.1573 1.48326 60.1802 2.21633C61.2031 2.93235 61.8169 4.09163 62.0044 5.67712L57.5718 5.93284C57.4525 5.25091 57.2138 4.75651 56.8217 4.4326C56.4296 4.10868 55.9182 3.95525 55.2533 3.95525C54.7077 3.95525 54.2986 4.07459 54.0258 4.29621C53.7701 4.50079 53.5996 4.80766 53.6167 5.14862C53.6167 5.40435 53.753 5.64302 53.9576 5.79646C54.1792 6.00103 54.7077 6.18857 55.5431 6.35905C57.6059 6.8023 59.0721 7.24556 59.9756 7.70586C60.8792 8.16616 61.527 8.72875 61.9191 9.39363C62.3283 10.0756 62.5329 10.8598 62.5158 11.6611C62.5158 12.6158 62.2431 13.5705 61.6975 14.3718C61.1349 15.2071 60.3507 15.8549 59.4301 16.2471C58.4584 16.6733 57.2309 16.8949 55.7647 16.8949C53.1734 16.8949 51.3833 16.4005 50.3775 15.3946C49.3717 14.3888 48.775 13.1272 48.6556 11.5929ZM1.07404 16.6392V1.39801H8.93327C10.3824 1.39801 11.5075 1.51735 12.2747 1.77308C13.0248 2.01175 13.6897 2.50615 14.133 3.17103C14.6274 3.9041 14.866 4.75651 14.849 5.64302C14.9001 7.14327 14.133 8.57532 12.8203 9.32544C12.3088 9.61526 11.7462 9.81984 11.1666 9.92213C11.5928 10.0415 12.019 10.2461 12.3941 10.4848C12.6839 10.7234 12.9226 10.9962 13.1442 11.286C13.3999 11.5758 13.6215 11.8998 13.8091 12.2407L16.0935 16.6562H10.7404L8.21724 11.968C7.89333 11.3713 7.62056 10.9792 7.36483 10.7916C7.02387 10.553 6.61471 10.4336 6.20555 10.4336H5.7964V16.6221H1.07404V16.6392ZM5.7964 7.56947H7.79104C8.21724 7.53538 8.6264 7.46718 9.03556 7.36489C9.34243 7.31375 9.6152 7.14327 9.80273 6.88754C10.263 6.27381 10.1948 5.40435 9.63225 4.87585C9.32538 4.62013 8.72869 4.48374 7.87628 4.48374H5.7964V7.56947ZM0 29.6981L4.48368 29.4083C4.58597 30.1414 4.7735 30.6869 5.08037 31.079C5.55772 31.6927 6.2567 32.0167 7.16025 32.0167C7.82513 32.0167 8.35363 31.8632 8.71164 31.5393C9.05261 31.2665 9.25718 30.8744 9.25718 30.4482C9.25718 30.0391 9.06965 29.647 8.74574 29.3912C8.40477 29.0844 7.60351 28.7775 6.32489 28.5047C4.26206 28.0444 2.77886 27.4307 1.9094 26.6465C1.03994 25.9134 0.545543 24.8394 0.57964 23.6971C0.57964 22.9129 0.818315 22.1287 1.26157 21.4809C1.77302 20.7478 2.47199 20.1681 3.30735 19.8442C4.21091 19.4521 5.47248 19.2475 7.05796 19.2475C9.00146 19.2475 10.4847 19.6056 11.5075 20.3386C12.5304 21.0717 13.1271 22.2139 13.3147 23.7994L8.88212 24.0551C8.76279 23.3732 8.52411 22.8788 8.132 22.5549C7.75694 22.231 7.22845 22.0776 6.56357 22.0946C6.01802 22.0946 5.60886 22.2139 5.33609 22.4526C5.06332 22.6572 4.90989 22.9641 4.92694 23.305C4.92694 23.5607 5.06332 23.7994 5.2679 23.9529C5.48953 24.1574 6.01802 24.345 6.85339 24.5154C8.91622 24.9587 10.3824 25.402 11.2859 25.8623C12.1895 26.3226 12.8373 26.8851 13.2294 27.55C13.6386 28.232 13.8432 29.0162 13.8432 29.8004C13.8432 30.7551 13.5533 31.6927 13.0248 32.494C12.4623 33.3294 11.678 33.9772 10.7574 34.3693C9.78568 34.7955 8.55821 35.0171 7.09206 35.0171C4.50073 35.0171 2.71067 34.5228 1.70482 33.5169C0.698977 32.494 0.136386 31.2324 0 29.6981Z" fill="white"/>
<path d="M22.6741 28.5048L26.7998 29.7493C26.5782 30.7893 26.1179 31.7781 25.4871 32.6475C24.9075 33.4147 24.1403 34.0114 23.2708 34.4035C22.3843 34.7956 21.2591 35.0002 19.8953 35.0002C18.2416 35.0002 16.8778 34.7615 15.8378 34.2842C14.7808 33.8068 13.8773 32.9544 13.1101 31.744C12.3429 30.5336 11.9679 28.9822 11.9679 27.0898C11.9679 24.5667 12.6327 22.6232 13.9796 21.2764C15.3264 19.9296 17.2187 19.2476 19.6737 19.2476C21.6001 19.2476 23.1004 19.6398 24.2085 20.4069C25.2996 21.1911 26.1179 22.3845 26.6634 23.987L22.5037 24.9077C22.4014 24.5496 22.2479 24.1916 22.0434 23.8848C21.7876 23.5267 21.4637 23.254 21.0716 23.0494C20.6795 22.8448 20.2363 22.7596 19.793 22.7596C18.719 22.7596 17.9006 23.1858 17.3381 24.0552C16.9118 24.686 16.6902 25.6919 16.6902 27.0557C16.6902 28.7435 16.9459 29.9028 17.4574 30.5336C17.9688 31.1644 18.6849 31.4712 19.6225 31.4712C20.5261 31.4712 21.208 31.2155 21.6683 30.7211C22.1286 30.1926 22.4696 29.4595 22.6741 28.5048ZM32.3064 19.5034H37.0117V24.8395H42.1603V19.5034H46.8997V34.7445H42.1603V28.573H37.0117V34.7445H32.3064V19.5034Z" fill="white"/>
<path d="M46.2518 27.1238C46.2518 24.6348 46.9508 22.6913 48.3317 21.3104C49.7126 19.9295 51.6561 19.2305 54.1281 19.2305C56.6683 19.2305 58.6118 19.9124 59.9927 21.2763C61.3736 22.6401 62.0555 24.5495 62.0555 27.0045C62.0555 28.7945 61.7487 30.2436 61.152 31.3859C60.5723 32.5111 59.6688 33.4317 58.5606 34.0454C57.4184 34.6762 56.0034 35.0001 54.3156 35.0001C52.5938 35.0001 51.1788 34.7273 50.0536 34.1818C48.8943 33.6021 47.9396 32.6986 47.3088 31.5905C46.6098 30.3971 46.2518 28.9139 46.2518 27.1238ZM50.9571 27.1409C50.9571 28.6752 51.247 29.7833 51.8096 30.4653C52.3721 31.1302 53.1564 31.4711 54.1452 31.4711C55.151 31.4711 55.9352 31.1472 56.4978 30.4823C57.0604 29.8174 57.3332 28.6411 57.3332 26.9363C57.3332 25.5042 57.0434 24.4472 56.4637 23.7994C55.8841 23.1345 55.0999 22.8106 54.1111 22.8106C53.2416 22.7765 52.4062 23.1516 51.8266 23.8165C51.247 24.4813 50.9571 25.5895 50.9571 27.1409ZM66.8802 27.1238C66.8802 24.6348 67.5792 22.6913 68.9601 21.3104C70.341 19.9295 72.2845 19.2305 74.7565 19.2305C77.2966 19.2305 79.2572 19.9124 80.621 21.2763C81.9849 22.6401 82.6839 24.5495 82.6839 27.0045C82.6839 28.7945 82.377 30.2436 81.7803 31.3859C81.2007 32.5111 80.2971 33.4317 79.189 34.0454C78.0468 34.6762 76.6318 35.0001 74.944 35.0001C73.2221 35.0001 71.8071 34.7273 70.6819 34.1818C69.5227 33.6021 68.568 32.6986 67.9372 31.5905C67.2382 30.3971 66.8802 28.9139 66.8802 27.1238ZM71.5855 27.1409C71.5855 28.6752 71.8753 29.7833 72.4379 30.4653C73.0005 31.1302 73.7847 31.4711 74.7735 31.4711C75.7794 31.4711 76.5636 31.1472 77.1262 30.4823C77.6888 29.8174 77.9615 28.6411 77.9615 26.9363C77.9615 25.5042 77.6717 24.4472 77.0921 23.7994C76.5124 23.1345 75.7282 22.8106 74.7394 22.8106C73.87 22.7765 73.0175 23.1516 72.455 23.8165C71.8753 24.4813 71.5855 25.5895 71.5855 27.1409Z" fill="white"/>
<path d="M82.1895 19.5034H86.8948V30.9939H94.2426V34.7445H82.1724V19.5034H82.1895Z" fill="white"/>
<path d="M77.0032 18.6238C81.7404 15.0539 83.2012 9.00232 80.266 5.10726C77.3308 1.21219 71.111 0.948592 66.3737 4.51849C61.6365 8.08838 60.1757 14.14 63.1109 18.035C66.0462 21.9301 72.266 22.1937 77.0032 18.6238Z" stroke="#1C6087" stroke-miterlimit="10"/>
<path d="M66.8972 10.4507L68.6021 9.25731L70.699 12.2407C71.057 12.7181 71.3298 13.2295 71.5343 13.7921C71.6537 14.2183 71.6196 14.6786 71.4491 15.0878C71.2275 15.5992 70.8695 16.0254 70.3921 16.3323C69.8295 16.7244 69.3522 16.946 68.943 17.0142C68.5509 17.0824 68.1417 17.0142 67.7667 16.8437C67.3575 16.6392 66.9995 16.3493 66.7267 15.9743L68.1929 14.6104C68.3122 14.798 68.4657 14.9684 68.6361 15.1048C68.7555 15.1901 68.8919 15.2412 69.0453 15.2412C69.1646 15.2412 69.284 15.1901 69.3692 15.1219C69.5397 15.0196 69.659 14.815 69.642 14.6104C69.5908 14.3206 69.4715 14.0308 69.284 13.8092L66.8972 10.4507ZM72.0117 12.343L73.5631 11.1155C73.7336 11.3201 73.9552 11.4736 74.1939 11.5588C74.5348 11.6611 74.8928 11.5929 75.1827 11.3713C75.3872 11.2349 75.5577 11.0473 75.6259 10.8087C75.7282 10.5018 75.5577 10.1608 75.2509 10.0585C75.1997 10.0415 75.1486 10.0245 75.0974 10.0245C74.8928 10.0074 74.5348 10.0926 74.0063 10.3143C73.1369 10.6723 72.4549 10.8087 71.9435 10.7575C71.4491 10.7064 70.9888 10.4507 70.716 10.0245C70.5114 9.73466 70.4092 9.3937 70.3921 9.05273C70.3921 8.66062 70.4944 8.26851 70.716 7.9446C71.0399 7.4843 71.4321 7.09219 71.9094 6.78532C72.6254 6.29092 73.2562 6.05225 73.8018 6.05225C74.3473 6.05225 74.8587 6.30797 75.3361 6.83646L73.8018 8.04689C73.4949 7.65478 72.9153 7.56954 72.5231 7.87641L72.472 7.92755C72.3015 8.02984 72.1822 8.18327 72.114 8.3708C72.0628 8.50719 72.0969 8.66062 72.1822 8.77996C72.2504 8.8652 72.3527 8.9334 72.472 8.9334C72.6084 8.95044 72.8471 8.88225 73.188 8.72882C74.0404 8.3708 74.6883 8.16623 75.1315 8.09803C75.5066 8.02984 75.8987 8.06394 76.2567 8.21737C76.5806 8.35376 76.8534 8.59243 77.0409 8.88225C77.2796 9.22322 77.416 9.63237 77.433 10.0585C77.4501 10.5018 77.3307 10.928 77.0921 11.3031C76.7852 11.7634 76.3931 12.1555 75.9328 12.4623C74.9951 13.1102 74.228 13.383 73.6142 13.2807C72.9493 13.1784 72.4038 12.8374 72.0117 12.343Z" fill="#1C6087"/>
</g>
<defs>
<clipPath id="clip0_15_15">
<rect width="95" height="35" fill="white"/>
</clipPath>
</defs>
</svg>
